<?xml version="1.0" encoding="UTF-8"?>
<svg id="Layer_2" data-name="Layer 2" xmlns="http://www.w3.org/2000/svg" viewBox="0 0 680 184.53">
  <defs>
    <style>
      .cls-1 {
        fill: #eafd2a;
        stroke-width: 0px;
      }
    </style>
  </defs>
  <g id="Layer_2-2" data-name="Layer 2">
    <g>
      <g>
        <path class="cls-1" d="M185.59,146.34s-.04,0-.06,0c0,0,0,0,0,0,0,0-.01,0-.02,0,0,0,0,0,0,0l-11.66,1.91v-15.44l15.92-2.6c2.46-.4,4.12-2.72,3.72-5.17-.4-2.46-2.72-4.12-5.17-3.72L3.83,151.49c-2.46.4-4.12,2.72-3.72,5.17.36,2.21,2.27,3.78,4.44,3.78.24,0,.49-.02.73-.06l18.79-3.07v15.44l-20.59,3.37c-2.01.33-3.48,2.06-3.48,4.1,0,2.29,1.86,4.15,4.14,4.15h181.25c4.51,0,8.19-3.69,8.19-8.19v-22.95c0-4.47-3.6-7.56-7.99-6.88ZM164.82,149.73l-37.91,6.2v-15.44l37.91-6.2v15.44ZM117.91,157.4l-37.91,6.2v-15.44l37.91-6.2v15.44ZM33.08,155.83l37.91-6.2v15.44l-37.91,6.2v-15.44Z"/>
        <polygon class="cls-1" points="152.5 21.81 153.98 21.81 153.98 13.11 157.19 13.11 157.19 11.8 149.3 11.8 149.3 13.11 152.5 13.11 152.5 21.81"/>
        <polygon class="cls-1" points="159.65 13.2 162.65 21.81 163.95 21.81 167.08 13.11 167.08 21.81 168.53 21.81 168.53 11.8 166.09 11.8 163.33 19.77 160.72 11.8 158.19 11.8 158.19 21.81 159.65 21.81 159.65 13.2"/>
        <path class="cls-1" d="M15.39,140.1l162.81-26.63c4.3-.7,7.82-4.84,7.82-9.2v-35.51c0-4.36-2.91-9.99-6.46-12.52L103.15,1.89c-3.55-2.53-9.36-2.53-12.91,0L14.02,56.14c-3.55,2.53-6.46,8.16-6.46,12.52v64.79c0,4.36,3.52,7.35,7.82,6.65ZM98.77,44.56c0-2.18,1.78-3.96,3.96-3.96h16.89c2.18,0,3.96,1.78,3.96,3.96v16.89c0,2.18-1.78,3.96-3.96,3.96h-16.89c-2.18,0-3.96-1.78-3.96-3.96v-16.89ZM98.77,73.33c0-2.18,1.78-3.96,3.96-3.96h16.89c2.18,0,3.96,1.78,3.96,3.96v16.89c0,2.18-1.78,3.96-3.96,3.96h-16.89c-2.18,0-3.96-1.78-3.96-3.96v-16.89ZM69.99,44.56c0-2.18,1.78-3.96,3.96-3.96h16.89c2.18,0,3.96,1.78,3.96,3.96v16.89c0,2.18-1.78,3.96-3.96,3.96h-16.89c-2.18,0-3.96-1.78-3.96-3.96v-16.89ZM69.99,73.33c0-2.18,1.78-3.96,3.96-3.96h16.89c2.18,0,3.96,1.78,3.96,3.96v16.89c0,2.18-1.78,3.96-3.96,3.96h-16.89c-2.18,0-3.96-1.78-3.96-3.96v-16.89Z"/>
      </g>
      <g>
        <path class="cls-1" d="M241.82,76.56h30.38c2.9,0,4.11-1.13,4.11-3.06,0-2.26-1.21-3.38-4.19-3.38h-13.46c-10.31,0-17.97-6.2-17.97-17.81s7.66-17.65,17.97-17.65h32.72v14.5h-29.01c-2.18,0-4.03.81-4.03,3.22s1.85,3.22,4.03,3.22h13.78c10.8,0,17.97,6.12,17.97,17.4s-7.17,18.05-17.97,18.05h-34.33v-14.5Z"/>
        <path class="cls-1" d="M309.69,34.66h30.78l14.18,56.41h-18.45l-2.18-8.86h-17.89l-2.18,8.86h-18.45l14.18-56.41ZM319.44,68.34h11.2l-4.67-19.18h-1.85l-4.67,19.18Z"/>
        <path class="cls-1" d="M358.86,34.66h17.48l14.18,17.89h.81l14.18-17.89h17.48v56.41h-17.73v-32.47h-.81l-13.14,17.08h-.81l-13.14-17.08h-.81v32.47h-17.73v-56.41Z"/>
        <path class="cls-1" d="M431.62,34.66h47.78v14.5h-29.57v6.45h29.57v14.5h-29.57v6.45h29.57v14.5h-47.78v-56.41Z"/>
        <path class="cls-1" d="M507.59,34.66h27.64c16.28,0,28.52,9.75,28.52,28.28s-12.25,28.12-28.52,28.12h-27.64v-56.41ZM533.22,76.56c8.86,0,12.73-5.32,12.73-13.7s-3.87-13.7-13.38-13.7h-6.53v27.4h7.17Z"/>
        <path class="cls-1" d="M578.78,34.66h30.78l14.18,56.41h-18.45l-2.18-8.86h-17.89l-2.18,8.86h-18.45l14.18-56.41ZM588.53,68.34h11.2l-4.67-19.18h-1.85l-4.67,19.18Z"/>
        <path class="cls-1" d="M639.87,71.08l-21.6-36.42h21.27l9.1,17.4h.97l9.11-17.4h21.27l-21.59,36.42v19.98h-18.53v-19.98Z"/>
        <path class="cls-1" d="M243.3,104.06h51.84c17.47,0,28.62,9.89,28.62,26.44,0,11.27-5.06,18.97-13.68,22.65l12.42,31.38h-27.93l-10.12-28.62h-16.67v28.62h-24.48v-80.46ZM289.05,138.09c4.83,0,8.16-1.72,8.16-6.78s-3.33-6.55-8.16-6.55h-21.26v13.33h21.26Z"/>
        <path class="cls-1" d="M347.12,104.06h43.91l20.23,80.46h-26.32l-3.1-12.64h-25.52l-3.1,12.64h-26.32l20.23-80.46ZM361.02,152.11h15.98l-6.67-27.36h-2.64l-6.67,27.36Z"/>
        <path class="cls-1" d="M416.74,104.06h24.94l20.23,25.52h1.15l20.23-25.52h24.94v80.46h-25.29v-46.32h-1.15l-18.74,24.37h-1.15l-18.74-24.37h-1.15v46.32h-25.29v-80.46Z"/>
        <path class="cls-1" d="M520.09,104.06h49.31c17.47,0,28.16,10.35,28.16,26.9s-10.69,26.9-28.16,26.9h-22.87v26.67h-26.44v-80.46ZM564.23,137.17c3.68,0,6.67-1.72,6.67-6.21,0-4.71-2.99-6.21-6.67-6.21h-17.7v12.42h17.7Z"/>
        <path class="cls-1" d="M603.25,163.84h43.33c4.14,0,5.86-1.61,5.86-4.37,0-3.22-1.72-4.83-5.98-4.83h-19.2c-14.71,0-25.63-8.85-25.63-25.4s10.92-25.17,25.63-25.17h46.67v20.69h-41.38c-3.1,0-5.75,1.15-5.75,4.6s2.64,4.6,5.75,4.6h19.66c15.4,0,25.63,8.74,25.63,24.83s-10.23,25.75-25.63,25.75h-48.97v-20.69Z"/>
      </g>
    </g>
  </g>
</svg>